<?xml version="1.0" encoding="UTF-8" standalone="no"?>
<!-- Created with Make The Cut! -->

<svg
   xmlns:mtc="http://www.make-the-cut.com/namespaces/make-the-cut"
   xmlns:dc="http://purl.org/dc/elements/1.1/"
   xmlns:cc="http://creativecommons.org/ns#"
   xmlns:rdf="http://www.w3.org/1999/02/22-rdf-syntax-ns#"
   xmlns:svg="http://www.w3.org/2000/svg"
   xmlns="http://www.w3.org/2000/svg"
   xmlns:sodipodi="http://sodipodi.sourceforge.net/DTD/sodipodi-0.dtd"
   xmlns:inkscape="http://www.inkscape.org/namespaces/inkscape"
   mtc:dpi="90"
   version="1.1"
   width="572.74249"
   height="561.4682"
   viewBox="0 0 572.74241 561.46812"
   id="svg2"
   inkscape:version="0.48.5 r10040"
   sodipodi:docname="bda0c_rick_and_morty.svg">
  <metadata
     id="metadata12">
    <rdf:RDF>
      <cc:Work
         rdf:about="">
        <dc:format>image/svg+xml</dc:format>
        <dc:type
           rdf:resource="http://purl.org/dc/dcmitype/StillImage" />
      </cc:Work>
    </rdf:RDF>
  </metadata>
  <defs
     id="defs10" />
  <sodipodi:namedview
     pagecolor="#ffffff"
     bordercolor="#666666"
     borderopacity="1"
     objecttolerance="10"
     gridtolerance="10"
     guidetolerance="10"
     inkscape:pageopacity="0"
     inkscape:pageshadow="2"
     inkscape:window-width="640"
     inkscape:window-height="480"
     id="namedview8"
     showgrid="false"
     inkscape:zoom="0.42041052"
     inkscape:cx="286.38334"
     inkscape:cy="280.72622"
     inkscape:window-x="0"
     inkscape:window-y="0"
     inkscape:window-maximized="0"
     inkscape:current-layer="Clipboard Trace: Trace Path 2" />
  <g
     inkscape:groupmode="layer"
     label="Clipboard Trace: Trace Path"
     id="Clipboard Trace: Trace Path"
     transform="translate(0.08029705,0.06394138)">
    <path
       label="Trace Path (1)"
       id="Trace Path (1)"
       d="m 362.756,405.461 c -12.722,4.76 -23.104,3.211 -35.353,-5.274 -9.427,-6.531 -15.369,-18.996 -13.378,-28.064 0.914,-4.161 1.047,-4.211 10.98,-4.211 11.313,0 29.976,-3.456 36.595,-6.776 5.229,-2.624 9.363,-7.419 9.407,-10.914 0.05,-3.901 2.3,-3.026 7.056,2.745 14.171,17.191 6.226,44.438 -15.307,52.494 z m 90.143,-3.05 c -16.014,7.677 -35.137,3.555 -45.357,-9.777 -9.306,-12.139 -9.351,-26.579 -0.121,-39.32 l 4.453,-6.147 2.327,4.887 c 4.369,9.174 17.566,13.967 42.4,15.397 l 15.523,0.893 -0.008,4.477 c -0.022,12.264 -7.683,24.06 -19.217,29.59 z M 249.673,239.253 c -0.036,2.061 -0.848,5.412 -1.805,7.447 -1.733,3.684 -1.774,3.691 -9.683,1.787 -4.368,-1.052 -15.415,-2.392 -24.549,-2.978 l -16.607,-1.065 -0.436,-7.572 c -0.378,-6.571 0.068,-8.075 3.377,-11.384 3.675,-3.675 4.269,-3.787 16.445,-3.093 9.889,0.564 14.331,1.572 20.451,4.64 10.218,5.122 12.886,7.667 12.807,12.218 z m -100.594,7.95 c -5.046,0.517 -11.026,1.311 -13.29,1.763 -4.687,0.938 -5.274,0.332 -6.617,-6.83 -3.343,-17.818 15.082,-34.868 32.585,-30.155 13.204,3.556 20.127,12.609 20.088,26.268 -0.034,11.478 -0.589,11.894 -13.052,9.792 -6.099,-1.029 -14.406,-1.382 -19.714,-0.838 z"
       inkscape:connector-curvature="0"
       style="fill:#ffffe0;stroke:#000000;stroke-width:0.125;stroke-linejoin:round" />
  </g>
  <g
     inkscape:groupmode="layer"
     label="Clipboard Trace: Trace Path 2"
     id="Clipboard Trace: Trace Path 2"
     transform="translate(0.08029705,0.06394138)">
    <path
       label="Trace Path 2 (1) (J)"
       id="Trace Path 2 (1) (J)"
       d="m 165.281,460.332 c 0.221,-22.636 1.065,-44.405 1.875,-48.376 1.642,-8.052 0.789,44.825 -1.188,73.647 -0.745,10.855 -0.963,2.853 -0.687,-25.271 z m 62.353,26.922 c -0.414,-1.078 -1.171,-8.064 -1.683,-15.524 -0.812,-11.827 -3.835,-40.89 -5.843,-56.164 -0.502,-3.817 -0.137,-3.287 1.489,2.166 4.395,14.738 6.363,28.011 7.332,49.459 0.922,20.403 0.622,25.058 -1.295,20.063 z m 82.279,73.57 c -1,-1.105 -2.804,-7.235 -5.321,-18.087 -4.481,-19.314 -6.664,-27.791 -8.633,-33.518 -0.51,-1.484 -1.26,-4.384 -1.668,-6.445 -1.934,-9.776 -5.717,-23.618 -15.47,-56.599 -1.696,-5.736 -4.291,-14.543 -5.767,-19.57 -5.362,-18.271 -4.803,-17.319 -10.743,-18.307 -2.187,-0.364 -5.132,-1.103 -8.373,-2.101 -8.224,-2.533 -26.338,-7.315 -26.625,-7.029 -0.261,0.261 1.538,3.278 4.555,7.632 2.933,4.235 5.001,7.752 5.001,8.509 0,0.462 0.885,1.198 2.281,1.897 1.459,0.73 1.628,0.97 2.836,4.017 1.148,2.894 3.005,6.881 8.325,17.868 2.264,4.676 4.495,9.475 4.957,10.664 0.461,1.189 1.671,3.85 2.687,5.912 2.563,5.201 4.581,10.774 5.952,16.436 1.958,8.088 0.59,10.844 -10.163,20.479 -10.947,9.808 -10.992,9.162 1.572,22.173 13.419,13.896 13.622,14.187 12.405,17.818 -1.062,3.169 -2.491,2.429 -3.427,-1.774 -0.69,-3.098 -1.129,-3.805 -3.348,-5.394 -0.615,-0.441 -1.909,-1.815 -2.875,-3.054 -1.254,-1.609 -2.181,-2.532 -3.244,-3.231 -4.452,-2.928 -15.692,-14.233 -16.213,-16.308 -0.324,-1.294 1.208,-3.23 8.819,-11.145 12.614,-13.116 13.108,-13.955 11.259,-19.125 -3.763,-10.522 -7.83,-19.974 -16.437,-38.203 -1.705,-3.609 -3.858,-8.197 -4.786,-10.195 -3.055,-6.579 -11.294,-19.528 -17.176,-26.995 -4.355,-5.529 -5.231,-7.453 -5.25,-11.532 -0.019,-4.063 0.655,-4.81 7.987,-8.853 12.227,-6.742 12.867,-7.206 16.342,-11.843 3.888,-5.19 5.716,-6.395 14.606,-9.634 9.857,-3.592 9.662,-3.146 4.691,-10.708 -7.198,-10.951 -6.424,-12.349 8.551,-15.46 7.47,-1.552 7.359,-1.284 4.711,-11.304 -1.606,-6.076 -2.484,-9.994 -2.484,-11.083 0,-1.185 0.289,-1.335 11.652,-6.068 14.838,-6.181 16.345,-7.14 15.086,-9.607 -0.915,-1.794 -3.666,-3.818 -11.035,-8.118 -9.815,-5.728 -14.225,-9.663 -14.887,-13.283 -0.404,-2.207 2.231,-3.668 15.751,-8.736 16.539,-6.2 27.758,-11.861 33.558,-16.932 0.774,-0.677 0.818,-0.78 0.486,-1.12 -0.522,-0.536 -5.88,-2.932 -13.346,-5.967 -12.852,-5.224 -15.163,-6.203 -17.843,-7.559 -6.887,-3.484 -7.223,-5.06 -2.143,-10.075 3.914,-3.864 19.996,-18.727 23.268,-21.504 4.372,-3.711 4.687,-4.08 4.687,-5.486 0,-2.835 -2.856,-3.803 -15.351,-5.205 -3.041,-0.341 -7.638,-1.056 -10.547,-1.642 -2.836,-0.57 -6.903,-1.354 -9.038,-1.74 -5.957,-1.08 -7.72,-1.748 -7.72,-2.927 0,-2.874 3.565,-10.121 10.904,-22.166 6.869,-11.273 10.957,-18.813 11.262,-20.775 0.536,-3.445 -4.462,-2.601 -16.928,2.856 -5.413,2.371 -6.16,2.645 -9.479,3.476 -1.363,0.341 -3.401,0.992 -4.529,1.447 -5.009,2.02 -9.582,2.257 -11.001,0.571 -2.956,-3.513 -5.585,-19.81 -6.598,-40.895 -0.811,-16.9 -1.241,-17.7499 -7.045,-13.9246 -1.39,0.916 -3.484,2.195 -4.654,2.8422 -9.007,4.9829 -26.384,18.7764 -28.576,22.6834 -0.832,1.482 -3.357,4.046 -5.83,5.921 -3.46,2.621 -4.257,2.49 -8.036,-1.317 -4.278,-4.311 -9.103,-10.541 -11.312,-14.609 -1.057,-1.947 -7.349,-9.0974 -15.7,-17.8448 l -3.877,-4.0608 -0.416,0.6624 c -0.595,0.9468 -1.2,3.5183 -2.558,10.8577 -4.296,23.2295 -9.214,37.7055 -13.466,39.6365 -2.08,0.944 -3.809,0.454 -8.646,-2.453 -1.869,-1.123 -4.119,-2.29 -4.999,-2.593 -0.881,-0.302 -4.08,-1.498 -7.11,-2.657 -11.16,-4.268 -16.494,-5.676 -20.484,-5.409 -1.772,0.119 -1.838,0.466 -0.554,2.938 0.595,1.145 1.352,3.041 1.681,4.213 0.656,2.332 1.298,4.128 3.251,9.098 5.111,13 7.282,27.566 4.336,29.089 -2.877,1.488 -22.5365,3.801 -43.6595,5.136 -8.3432,0.528 -9.8911,0.79 -10.5056,1.781 -0.488,0.786 1.4561,3.623 5.8603,8.549 1.3948,1.561 4.2353,4.734 6.3123,7.053 6.3695,7.111 10.3018,12.658 14.3415,20.228 4.135,7.748 3.0189,12.467 -3.7053,15.664 -1.5784,0.75 -3.808,2.142 -6.2109,3.877 -2.0617,1.489 -7.1235,5.127 -11.2485,8.084 -14.9878,10.745 -15.9733,12.226 -7.9143,11.896 4.2415,-0.174 4.1103,-0.204 6.0887,1.407 1.3255,1.08 3.6099,2.25 8.5683,4.387 6.2237,2.683 11.8268,6.947 17.7785,13.529 6.4274,7.108 6.3178,7.507 -5.3775,19.564 -12.8691,13.267 -15.6084,16.26 -15.2278,16.641 0.1433,0.143 6.7221,2.567 13.4084,4.941 9.1575,3.251 14.8459,5.439 17.6561,6.79 l 2.6363,1.268 -0.003,2.05 c -0.005,2.619 -0.8529,6.469 -2.929,13.3 -3.1659,10.418 -3.3072,11.067 -2.7346,12.554 0.2941,0.763 1.7316,2.034 2.5659,2.267 1.0598,0.297 7.8607,0.157 12.4007,-0.255 12.772,-1.158 13.643,-0.554 14.486,10.044 0.681,8.564 1.324,9.959 4.59,9.96 2.77,10e-4 4.38,-0.976 4.868,-2.956 0.841,-3.414 0.425,-4.797 -3.58,-11.892 -2.203,-3.903 -3.608,-6.896 -4.471,-9.526 -0.36,-1.096 -1.277,-3.465 -2.039,-5.265 -6.998,-16.538 -10.785,-39.444 -10.715,-64.814 0.02,-7.258 0.219,-8.098 0.773,-3.251 4.866,42.617 12.65,69.325 25.48,87.42 4.466,6.299 8.273,9.215 21.087,16.151 10.554,5.713 11.008,6.183 10.998,11.387 -0.007,3.041 -0.145,3.414 -2.526,6.79 -1.887,2.674 -3.871,6.344 -5.755,10.644 -1.697,3.871 -3.389,7.562 -7.378,16.085 -4.183,8.94 -6.013,13.334 -7.943,19.071 -0.845,2.514 -2.058,5.836 -2.694,7.383 -1.961,4.768 -2.753,6.906 -3.819,10.313 -1.433,4.578 -2.208,6.762 -3.741,10.546 -3.204,7.908 -3.357,10.577 -0.805,14.063 2.022,2.764 7.662,7.766 11.862,10.522 1.643,1.078 3.462,2.854 4.779,4.665 0.356,0.49 1.428,1.507 2.384,2.26 3.902,3.077 3.892,5.408 -0.039,9.336 -3.891,3.888 -4.779,3.443 -3.414,-1.713 1.076,-4.062 1.074,-4.066 -9.173,-14.08 -8.245,-8.058 -9.802,-9.777 -10.765,-11.88 -1.348,-2.944 -0.801,-8.635 1.051,-10.946 0.258,-0.322 0.832,-1.957 1.276,-3.633 0.955,-3.607 2.616,-8.357 6.43,-18.398 8.039,-21.159 11.818,-29.61 18.904,-42.277 2.107,-3.766 3.756,-7.198 3.984,-8.29 l 0.158,-0.761 -1.137,0 c -2.931,0 -17.539,4.294 -30.306,8.907 -2.772,1.002 -6.832,2.371 -9.024,3.043 -6.635,2.033 -8.24,3.172 -9.843,6.988 -1.945,4.626 -5.427,15.834 -9.262,29.812 -2.162,7.878 -4.4855,15.754 -6.7074,22.734 -7.2147,22.664 -12.2903,37.858 -13.2623,39.7 -0.4926,0.933 -0.6444,-0.292 -0.6498,-5.247 -0.0126,-11.538 -0.3513,-12.327 -9.6063,-22.383 -9.8715,-11.491 -21.0239,-23.422 -28.7042,-36.612 -3.6317,-5.564 -6.6562,-10.939 -9.8706,-16.698 -3.2273,-5.421 -15.7852,-31.604 -16.8101,-35.049 -0.1918,-0.645 -0.9926,-2.78 -1.7795,-4.745 -6.1547,-15.371 -14.32594,-51.7 -16.06549,-71.427 -1.520512,-17.243 -1.27907,-49.038 0.47518,-62.578 1.23957,-9.568 5.85299,-34.38 8.06738,-43.389 2.00023,-8.137 11.06523,-32.282 16.03913,-42.72 1.2041,-2.527 2.8782,-6.19 3.7202,-8.14 3.6266,-8.401 6.464,-13.246 17.619,-30.087 2.8603,-4.318 6.0958,-9.223 7.19,-10.898 4.9042,-7.511 19.0743,-23.3997 33.0354,-37.0412 12.2512,-11.9709 31.5734,-27.4299 40.1714,-32.1395 1.362,-0.7456 2.532,-1.6039 3.282,-2.4056 3.863,-4.1339 23.56,-14.4558 50.127,-26.2684 7.489,-3.33 10.117,-4.3033 14.165,-5.2468 1.935,-0.4512 5.82,-1.5084 8.633,-2.3493 16.91,-5.05563 28.37,-7.55491 42.966,-9.37023 36.109,-4.49105 78.576,-2.603977 108.164,4.80643 13.003,3.2566 21.608,5.7971 28.477,8.4066 2.642,1.004 5.912,2.2212 7.265,2.7047 9.135,3.2631 33.9,15.887 49.102,25.0297 31.31,18.8297 65.132,51.8913 87.315,85.3516 12.017,18.126 27.152,48.637 31.628,63.756 0.801,2.707 2.401,8.086 3.555,11.953 3.419,11.459 4.705,17.02 7.559,32.695 3.095,16.994 3.071,16.667 3.054,41.836 -0.022,31.093 -0.746,47.254 -2.542,56.719 -2.151,11.343 -7.074,30.557 -11.079,43.242 -5.331,16.886 -21.326,49.488 -31.911,65.039 -15.88,23.335 -24.642,33.839 -42.579,51.05 -12.215,11.721 -16.056,15.633 -16.05,16.35 0.003,0.313 0.159,2.362 0.348,4.553 1.015,11.759 0.268,12.015 -3.069,1.055 -3.805,-12.497 -8.645,-23.664 -15.341,-35.39 -3.405,-5.965 -4.221,-7.979 -3.721,-9.187 0.421,-1.015 3.029,-3.738 6.192,-6.466 7.761,-6.691 11.431,-10.416 18.175,-18.449 7.023,-8.365 8.974,-10.17 13.87,-12.827 12.267,-6.657 15.891,-15.151 10.695,-25.067 -2.916,-5.566 -3.296,-6.452 -3.416,-7.973 -0.125,-1.589 -0.1,-1.749 1.331,-8.625 3.083,-14.814 3.134,-24.722 0.23,-45.235 -2.562,-18.099 -4.71,-24.715 -12.364,-38.086 -5.268,-9.201 -5.387,-9.361 -16.08,-21.539 -7.427,-8.44 -13.492,-12.529 -23.508,-17.33 -23.515,-11.284 -34.138,-13.455 -57.605,-11.772 -32.769,2.352 -47.906,9.07 -70.52,31.298 -9.486,9.325 -11.3,11.683 -13.35,17.355 -0.734,2.03 -0.79,2.105 -4.704,6.304 -8.305,8.909 -8.411,9.132 -9.623,20.296 -1.308,12.041 -2.033,15.53 -5.825,28.02 -3.405,11.214 -3.573,10.373 6.127,30.597 1.553,3.237 3.063,6.573 3.357,7.414 l 0.533,1.528 -0.458,1.02 c -0.252,0.561 -1.584,2.543 -2.959,4.404 -6.056,8.195 -6.999,11.699 -4.501,16.735 3.305,6.666 9.475,11.413 14.834,11.413 1.951,0 1.991,-0.399 0.716,-7.149 -0.868,-4.592 -1.271,-8.267 -0.988,-9.011 l 0.219,-0.575 0.411,0.627 c 0.226,0.345 1.069,2.133 1.875,3.973 7.504,17.144 20.509,33.14 34.114,41.961 4.289,2.781 14.211,8.094 19.805,10.605 15.072,6.767 18.584,7.479 48.164,9.767 l 3.867,0.299 -1.875,0.185 c -2.722,0.27 -21.509,-0.025 -26.685,-0.419 -9.972,-0.758 -16.089,-1.776 -27.456,-4.568 -11.229,-2.758 -14.357,-2.636 -15.488,0.602 -0.284,0.815 -1.512,2.913 -2.944,5.031 -8.15,12.052 -12.861,28.537 -16.609,58.125 -1.93,15.231 -2.627,17.823 -4.297,15.977 z"
       inkscape:connector-curvature="0"
       style="fill:#cf112b;stroke:#000000;stroke-width:0.125;stroke-linejoin:round" />
  </g>
</svg>
